<svg xmlns="http://www.w3.org/2000/svg" viewBox="0 0 1300.9 248.7">
  <g fill="#FFF">
    <path d="M150.8-.9c5 0 9.6.8 13.9 2.7l-3.2 8.2c-2.7-1.4-6.6-2-10.5-2-9.1 0-16.2 7.1-16.2 17.1 0 11.2 8.3 17.1 16.8 17.1 4 0 7.3-.6 10.3-2.2l3.2 8.3c-4 2.1-8.8 2.8-13.7 2.8-14.5 0-27.1-9.9-27.1-26.1 0-15.5 12.3-25.9 26.5-25.9zM216.2-.9c15.1 0 27 10.8 27 26.1s-11.9 26.1-27 26.1-27-10.8-27-26.1 11.9-26.1 27-26.1zm0 43.2c9.1 0 16.5-7 16.5-17.1s-7.3-17.1-16.5-17.1c-9.1 0-16.5 7-16.5 17.1s7.3 17.1 16.5 17.1zM269.8 29.1V0h10.4v29.7c0 8.9 5.2 12.6 10.8 12.6s10.8-3.7 10.8-12.6V0h10.4v29.1c0 15.3-9.6 22.2-21.2 22.2s-21.2-7-21.2-22.2zM342.4 0h7.6l24 31.6V0h10.4v50.4h-7.6l-24-31.7v31.7h-10.4V0zM424.5 8.8H411V0h37.3v8.8h-13.5v41.6h-10.4V8.8zM474.9 0h31v8.8h-20.6v13.5h17.3v8.8h-17.3v10.5h21.2v8.8h-31.6V0zM556.9 34.7l16 15.7h-13.2L545 35.1v15.3h-10.4V0H552c12.4 0 19.9 7.8 19.9 17.6 0 8.8-5.9 15.1-15 17.1zM545 27.1h5.3c7.1 0 11-3.1 11-9.2 0-6-3.9-9.2-9.6-9.2H545v18.4zM628.4 0h10.4v22.5h18V0h10.4v50.4h-10.4V31.2h-18v19.1h-10.4V0zM708.1 0v50.4h-10.4V0h10.4zM736.9 12.8c0-8.1 5.8-13.7 16.2-13.7 4.8 0 9.8 1.3 13.5 3.5l-3.2 8.2c-2.6-1.7-6-2.8-9.4-2.8-4.5 0-6.7 1.7-6.7 4.2 0 2.8 1.9 4.5 8.7 7.6 8.8 4 13 8.5 13 16.1 0 9.3-6.3 15.3-18.2 15.3-5.3 0-10.9-1.5-15.1-4.1l3.2-8.4c3.2 2.2 7.6 3.5 11.5 3.5 5 0 8.1-2 8.1-5.5 0-3.7-2.6-5.8-8.8-8.5-9.9-4.2-12.8-8.9-12.8-15.4zM805.3 8.8h-13.5V0h37.3v8.8h-13.5v41.6h-10.4V8.8zM879.1-.9c15.1 0 27 10.8 27 26.1s-11.9 26.1-27 26.1-27-10.8-27-26.1S864-.9 879.1-.9zm0 43.2c9.1 0 16.5-7 16.5-17.1s-7.3-17.1-16.5-17.1c-9.1 0-16.5 7-16.5 17.1s7.4 17.1 16.5 17.1zM955.1 34.7l16 15.7h-13.2l-14.8-15.3v15.3h-10.4V0H950c12.5 0 20 7.8 20 17.6 0 8.8-5.8 15.1-14.9 17.1zm-11.9-7.6h5.3c7.1 0 11-3.1 11-9.2 0-6-3.9-9.2-9.6-9.2h-6.8v18.4zM1008.5 0v50.4h-10.4V0h10.4zM1039.1 0h31v8.8h-20.6v13.5h17.3v8.8h-17.3v10.5h21.2v8.8h-31.6V0zM1096.9 12.8c0-8.1 5.8-13.7 16.2-13.7 4.8 0 9.8 1.3 13.5 3.5l-3.2 8.2c-2.6-1.7-6-2.8-9.4-2.8-4.5 0-6.7 1.7-6.7 4.2 0 2.8 1.9 4.5 8.7 7.6 8.8 4 13 8.5 13 16.1 0 9.3-6.3 15.3-18.2 15.3-5.3 0-10.9-1.5-15.1-4.1l3.2-8.4c3.2 2.2 7.6 3.5 11.5 3.5 5 0 8.1-2 8.1-5.5 0-3.7-2.6-5.8-8.8-8.5-9.8-4.2-12.8-8.9-12.8-15.4zM1156.2 18.1c0-4 1.9-5.8 5.8-5.8s5.8 1.9 5.8 5.8-1.9 5.8-5.8 5.8-5.8-1.9-5.8-5.8zm0 27.3c0-4 1.9-5.8 5.8-5.8s5.8 1.9 5.8 5.8-1.9 5.8-5.8 5.8c-3.9.1-5.8-1.8-5.8-5.8z"/>
    <g>
      <path d="M57 205l40.8 41.4H64.2l-37.7-40.3v40.3H0v-133h44.3c31.6 0 50.8 20.5 50.8 46.6 0 23.1-14.9 39.6-38.1 45zm-30.5-20.2h13.6c18.2 0 28.2-8.2 28.2-24.3 0-16-9.9-24.3-24.5-24.3H26.5v48.6zM225.8 111.1c38.6 0 69 28.5 69 68.8s-30.4 68.8-69 68.8-69-28.5-69-68.8 30.3-68.8 69-68.8zm0 114c23.4 0 42.1-18.4 42.1-45.2s-18.8-45.2-42.1-45.2c-23.4 0-42.1 18.4-42.1 45.2s18.7 45.2 42.1 45.2zM422.6 111.1c31.1 0 58 18.8 66.2 48.3h-28.3c-7-15.4-21.7-24.7-37.9-24.7-22.8 0-42.1 18-42.1 45.2s19.3 45.2 42.1 45.2c16.2 0 30.9-9.3 37.9-24.7h28.3c-8.3 29.5-35.1 48.3-66.2 48.3-38.1 0-69-27.9-69-68.8s31-68.8 69-68.8zM583.5 177.2h12.4l26.6-63.8h29.1l-30.2 69.5c18.5 9.3 29.2 29.7 31.8 57.6l.6 5.9H628l-.6-5.5c-3.1-31.2-14.9-40.9-34.6-40.9h-9.4v46.4H557v-133h26.5v63.8zM795.4 113.4h26.5v59.3h46v-59.3h26.5v133h-26.5v-50.5h-46v50.5h-26.5v-133zM999.1 113.4v133h-26.5v-133h26.5zM1077.3 113.4h26.5v109.8h51.7v23.2h-78.2v-133zM1222.7 113.4h26.5v109.8h51.7v23.2h-78.2v-133z"/>
    </g>
  </g>
</svg>